<svg width="32" height="32" viewBox="0 0 32 32" fill="none" xmlns="http://www.w3.org/2000/svg">
<circle cx="16" cy="16" r="16" fill="#21B386"/>
<g clip-path="url(#clip0_1902_22859)">
<path d="M26.0097 15.4947C26.0097 14.2384 22.5913 13.1903 18.0486 12.9484L18.0483 10.9467H23.7204V6.78088H8.21049V10.9467H13.8821V12.9582C9.42217 13.2166 6.08594 14.2539 6.08594 15.4947C6.08594 16.7358 9.42217 17.7731 13.8821 18.0311V25.2191H18.0483V18.0408C22.5913 17.7996 26.0097 16.751 26.0097 15.4947ZM16.0478 16.7323C11.1718 16.7323 7.21894 15.9777 7.21894 15.0462C7.21894 14.2575 10.0534 13.5953 13.8821 13.4111V13.8858H13.8826V15.8313C14.5729 15.87 15.2983 15.8903 16.0478 15.8903C16.7379 15.8903 17.4081 15.8727 18.0487 15.8406V13.4039C21.9605 13.5768 24.8768 14.2459 24.8768 15.0462C24.8767 15.9777 20.9238 16.7323 16.0478 16.7323Z" fill="white"/>
</g>
<defs>
<clipPath id="clip0_1902_22859">
<rect width="20" height="20" fill="white" transform="translate(6 6)"/>
</clipPath>
</defs>
</svg>
